<svg id="Layer_3" enable-background="new 0 0 64 64" height="512" viewBox="0 0 64 64" width="512" xmlns="http://www.w3.org/2000/svg"><path d="m10 42v-14l2.609-.87c2.424-.808 4.893-1.462 7.391-1.959l4-.658c1.659-.217 3.327-.365 5-.445h6c1.673.08 3.341.228 5 .445l4 .658c2.498.497 4.967 1.151 7.391 1.959l2.609.87v14" fill="#2d4d83"/><path d="m21 38c13.272 0 24.453-4.921 27.898-11.635-1.617-.463-3.251-.866-4.898-1.194l-4-.658c-1.659-.217-3.327-.365-5-.445h-6c-1.673.08-3.341.228-5 .445l-4 .658c-2.498.497-4.967 1.151-7.391 1.959l-2.609.87v8.805c3.393.768 7.105 1.195 11 1.195z" fill="#4472b2"/><path d="m8 48h4v12h-4z" fill="#674025"/><path d="m52 48h4v12h-4z" fill="#674025"/><path d="m12 48h40v12h-40z" fill="#c18e59"/><path d="m8 48v-4c0-1.105.895-2 2-2h44c1.105 0 2 .895 2 2v4" fill="#4472b2"/><path d="m38 2c0 3.314-2.686 6-6 6s-6-2.686-6-6" fill="#e39854"/><circle cx="55" cy="9" fill="#78b75b" r="7"/><path d="m26 42v-8h-2c-2.209 0-4-1.791-4-4v-10h4v10h16v-10h4v10c0 2.209-1.791 4-4 4h-2v8" fill="#78b75b"/><path d="m32 28c-1.657 0-3-1.343-3-3v-2c0-1.657 1.343-3 3-3 1.657 0 3 1.343 3 3v2c0 1.657-1.343 3-3 3z" fill="#efbe9a"/><path d="m5 42c-1.657 0-3 1.343-3 3v17h6v-17c0-1.657-1.343-3-3-3z" fill="#976947"/><path d="m59 42c-1.657 0-3 1.343-3 3v17h6v-17c0-1.657-1.343-3-3-3z" fill="#976947"/><g fill="#e39854"><path d="m31 11h2v4h-2z"/><path d="m38.5 8.379h2v4.243h-2z" transform="matrix(.707 -.707 .707 .707 4.145 31.006)"/><path d="m22.379 9.5h4.243v2h-4.243z" transform="matrix(.707 -.707 .707 .707 -.249 20.4)"/></g><path d="m53.707 12.707-1.414-1.414 1.707-1.707v-4.586h2v5c0 .265-.105.52-.293.707z" fill="#fff"/></svg>